<?xml version="1.0" standalone="no"?><!-- Generator: Gravit.io --><svg xmlns="http://www.w3.org/2000/svg" xmlns:xlink="http://www.w3.org/1999/xlink" style="isolation:isolate" viewBox="0 0 2000 1200" width="2000" height="1200"><defs><clipPath id="_clipPath_0w2V5Iov6XwWju3U9t0f0LkP01zhpsjl"><rect width="2000" height="1200"/></clipPath></defs><g clip-path="url(#_clipPath_0w2V5Iov6XwWju3U9t0f0LkP01zhpsjl)"><path d=" M 0 0 L 2000 600 L 2000 0 L 0 0 Z " fill="rgb(255,96,0)"/><path d=" M 0 1200 L 2000 1200 L 2000 600 L 0 1200 Z " fill="rgb(0,96,0)"/><path d=" M 0 0 L 2000 600 L 0 1200 L 0 0 Z " fill="rgb(255,255,255)"/><path d=" M 376.322 245.213 C 303.629 254.594 263.799 307.132 299.034 347.16 C 302.668 351.289 302.67 351.302 300.606 352.097 C 234.174 377.673 181.635 424.009 150.804 484.218 C 80.362 621.771 134.784 788.073 272.752 856.861 C 281.22 861.083 287.743 864.856 287.586 865.443 C 287.431 866.019 281.271 879.167 273.894 894.661 L 260.483 922.829 L 254.44 923.847 C 233.775 927.333 223.231 941.699 232.904 953.192 L 235.127 955.836 L 265.182 955.836 L 295.237 955.836 L 297.955 952.746 C 303.353 946.596 302.557 938.983 295.868 932.82 L 291.876 929.138 L 304.86 903.15 C 319.703 873.438 318.886 874.777 321.572 875.796 C 352.075 887.394 419.796 888.329 461.191 877.724 L 467.967 875.987 L 481.267 902.576 L 494.567 929.165 L 491.06 932.336 C 484.134 938.592 483.306 946.501 488.884 953.13 L 491.162 955.836 L 521.245 955.836 L 551.327 955.836 L 554.058 952.527 C 563.432 941.155 552.897 927.652 531.589 923.726 L 526.024 922.7 L 512.487 894.254 C 505.043 878.607 499.064 865.732 499.201 865.646 C 499.339 865.557 506.852 861.854 515.896 857.414 C 654.774 789.268 709.916 622.347 639.18 484.218 C 610.051 427.335 557.713 379.528 498.522 355.738 C 488.472 351.701 488.286 351.53 491.14 349.004 C 514.601 328.234 507.498 288.411 476.524 267.052 C 452.006 250.147 409.638 240.914 376.322 245.213 Z  M 423.109 257.095 C 455.515 262.635 481.834 278.736 491.376 298.86 C 498.393 313.655 492.541 336.653 479.376 346.027 L 476.906 347.784 L 465.065 344.689 C 449.452 340.608 435.672 338.209 420.87 336.989 C 414.215 336.443 408.262 335.849 407.638 335.672 C 406.766 335.421 406.561 332.01 406.748 320.881 L 406.994 306.415 L 420.774 305.972 C 441.505 305.303 449.464 295.926 441.888 281.096 C 437.536 272.58 435.793 272.23 397.658 272.23 C 366.206 272.23 361.691 272.605 357.721 275.546 C 349.096 281.941 349.51 298.02 358.452 303.962 C 361.21 305.796 362.503 305.972 373.363 305.972 L 385.255 305.972 L 385.011 320.86 L 384.768 335.751 L 380.767 335.968 C 362.234 336.96 340.222 340.456 323.426 345.073 L 313.647 347.763 L 308.945 342.647 C 267.042 297.048 339.442 242.791 423.109 257.095 Z  M 431.803 361.073 C 568.005 381.758 662.845 506.983 645.175 642.804 C 626.01 790.112 484.264 889.14 339.118 856.622 C 242.731 835.029 166.255 756.236 147.518 659.218 C 118.853 510.809 223.746 372.63 375.434 358.97 C 386.197 358.003 419.841 359.257 431.803 361.073 Z  M 386.766 380.709 C 375.596 386.606 375.71 404.23 386.957 409.967 C 398.473 415.844 411.439 408.085 411.439 395.315 C 411.439 382.53 398.184 374.682 386.766 380.709 Z  M 297.097 416.103 C 291.617 421.581 292.415 429.367 298.902 433.739 C 309.184 440.669 321.66 428.19 314.733 417.908 C 310.361 411.422 302.575 410.625 297.097 416.103 Z  M 492.266 425.07 C 489.485 426.194 485.814 430.994 485.19 434.315 C 483.001 445.985 500.004 452.319 506.579 442.285 C 512.514 433.224 502.346 420.994 492.266 425.07 Z  M 214.792 498.794 C 209.492 502.124 207.539 507.106 209.367 512.65 C 212.544 522.293 227.166 522.793 231.094 513.392 C 235.225 503.506 223.709 493.194 214.792 498.794 Z  M 578.965 509.53 C 572.895 511.314 570.123 514.862 570.13 520.845 C 570.142 532.81 585.891 536.854 591.671 526.376 C 596.437 517.734 588.203 506.815 578.965 509.53 Z  M 518.12 537.156 C 508.341 537.489 498.192 537.816 495.571 537.882 L 490.8 538.003 L 496.014 543.599 C 500.967 548.914 504.189 553.611 503.379 554.332 C 502.79 554.858 413.589 602.012 413.187 602.012 C 412.986 602.012 410.979 600.71 408.726 599.121 C 402.62 594.818 392.679 594.831 386.548 599.153 L 382.403 602.076 L 347.359 580.928 C 328.085 569.299 312.316 559.505 312.316 559.166 C 312.313 557.801 321.239 549.876 324.878 548.015 C 327.013 546.922 328.36 546.021 327.871 546.012 C 327.382 546.005 314.685 543.998 299.655 541.556 C 284.623 539.111 272.131 537.113 271.894 537.113 C 271.514 537.113 280.114 550.696 296.339 575.728 L 301.489 583.671 L 302.529 579.727 C 303.89 574.569 307.966 565.434 308.761 565.755 C 309.102 565.894 325.008 575.407 344.105 586.898 L 378.828 607.79 L 378.391 613.123 C 377.087 629.022 394.233 639.347 407.904 630.895 C 413.803 627.249 416.712 621.616 416.748 613.771 L 416.773 608.047 L 462.02 584.071 C 496.608 565.741 507.446 560.373 508.033 561.272 C 509.991 564.271 511.829 572.826 511.861 579.071 C 511.882 582.835 512.134 585.637 512.426 585.296 C 515.808 581.331 551.329 538.934 552.233 537.78 C 553.621 536.009 552.435 535.989 518.12 537.156 Z  M 168.444 595.867 C 160.816 599.743 157.461 609.361 160.97 617.297 C 165.688 627.961 179.375 630.638 187.853 622.549 C 201.558 609.477 185.395 587.255 168.444 595.867 Z  M 603.449 595.248 C 591.068 600.642 590.442 619.09 602.429 625.31 C 617.964 633.373 633.688 615.735 624.007 601.106 C 619.913 594.92 610.413 592.214 603.449 595.248 Z  M 200.707 692.104 C 195.728 697.084 195.527 704.059 200.229 708.761 C 209.697 718.227 225.22 706.046 218.402 694.503 C 214.765 688.345 205.696 687.116 200.707 692.104 Z  M 563.904 702.293 C 556.691 706.256 556.141 717.228 562.925 721.779 C 568.139 725.277 576.041 724.012 579.213 719.171 C 585.936 708.912 574.6 696.415 563.904 702.293 Z  M 288.756 774.391 C 284.195 776.398 280.729 782.759 281.723 787.288 C 284.293 798.988 300.345 800.206 304.25 788.999 C 307.4 779.962 297.434 770.569 288.756 774.391 Z  M 479.824 786.801 C 470.975 790.895 471.141 803.592 480.095 807.554 C 488.22 811.148 496.34 805.948 496.34 797.149 C 496.34 788.323 487.928 783.052 479.824 786.801 Z  M 392.544 810.336 C 380.84 814.58 377.897 829.994 387.226 838.185 C 395.239 845.22 406.573 843.839 412.454 835.113 C 421.295 821.993 407.554 804.889 392.544 810.336 Z " fill-rule="evenodd" fill="rgb(0,0,0)"/></g></svg>