<?xml version="1.0" encoding="iso-8859-1"?>
<!-- Generator: Adobe Illustrator 21.0.0, SVG Export Plug-In . SVG Version: 6.00 Build 0)  -->
<svg xmlns="http://www.w3.org/2000/svg" xmlns:xlink="http://www.w3.org/1999/xlink" version="1.1" id="Capa_1" x="0px" y="0px" viewBox="0 0 511.971 511.971" style="enable-background:new 0 0 511.971 511.971;" xml:space="preserve" width="512" height="512">
<g>
	<path style="fill-rule:evenodd;clip-rule:evenodd;" d="M379.984,222h-60.517v44.092h60.517c60.955,0,110.807-49.718,110.998-110.65   C469.122,196.085,426.581,222,379.984,222z"/>
	<path style="fill-rule:evenodd;clip-rule:evenodd;" d="M184.551,222h-52.567c-46.5,0-89.091-25.83-110.995-66.554   c0.193,60.918,50.034,110.646,110.995,110.646h52.595L184.551,222z"/>
	<path style="fill-rule:evenodd;clip-rule:evenodd;" d="M458.345,315.694c-1.412-1.412-2.906-2.676-4.459-3.811   c-5.458-5.914-13.207-9.636-21.863-9.636c-8.692,0-16.549,3.747-22.044,9.702c-2.952,2.154-5.652,4.771-7.974,7.864   c-2.359-3.144-5.084-5.794-8.059-7.953c-5.491-5.903-13.311-9.614-21.959-9.614c-8.649,0-16.469,3.711-21.96,9.614   c-2.974,2.159-5.699,4.809-8.058,7.953c-2.324-3.097-5.033-5.737-8.01-7.902c-5.493-5.933-13.334-9.665-22.008-9.665   c-8.727,0-16.609,3.779-22.107,9.776c-0.124,0.092-0.252,0.175-0.375,0.269v-93.774c0-20.647-16.869-37.518-37.518-37.518   c-20.65,0-37.518,16.867-37.518,37.518l0.091,144.046l-16.338-16.338c-14.597-14.597-38.436-14.596-53.032,0   c-14.693,14.693-11.84,35.782-0.879,51.918c26.313,38.738,49.692,73.221,73.264,110.207c1.307,2.168,3.685,3.619,6.402,3.619   l239.044-0.337c4.099,0,7.439-3.305,7.471-7.412c0.466-54.698-0.008-107.561-0.944-162.073   C469.334,331.828,465.105,322.455,458.345,315.694z"/>
	<path style="fill-rule:evenodd;clip-rule:evenodd;" d="M225.754,111.144h11.334c0.427,0,0.833-0.406,0.833-0.833v-49.28   c0-0.428-0.406-0.833-0.833-0.833h-11.334c-0.427,0-0.833,0.405-0.833,0.833v49.28   C224.921,110.738,225.326,111.144,225.754,111.144z"/>
	<path style="fill-rule:evenodd;clip-rule:evenodd;" d="M131.984,192h57.882c18.709-43.606,75.779-55.211,109.797-21.194   c6.044,6.043,10.952,13.228,14.37,21.194h65.951c52.837,0,96-43.163,96-96c0-52.836-43.163-96-96-96h-248   c-52.836,0-96,43.164-96,96S79.147,192,131.984,192z M369.921,45.197c0-8.284,6.716-15,15-15h15.285c8.284,0,15,6.716,15,15   c0,8.329-6.636,15-15.285,15v10.499c8.652,0,15.287,6.671,15.287,15s-6.636,15-15.287,15v10.498c8.9,0,15.502,6.613,15.502,15   c0,8.284-6.716,15-15,15h-15.501c-8.284,0-15-6.716-15-15V45.197z M297.921,30.224c13.334,0,26.665,0,39.999,0   c8.284,0,15,6.716,15,15c0,8.285-6.716,15-15,15h-5v65.971c0,8.284-6.716,15-15,15c-8.284,0-15-6.716-15-15V60.224h-4.999   c-8.284,0-15-6.716-15-15C282.921,36.939,289.637,30.224,297.921,30.224z M194.921,61.031c0-16.989,13.845-30.833,30.833-30.833   h11.334c16.989,0,30.833,13.845,30.833,30.833v49.28c0,16.988-13.845,30.833-30.833,30.833h-11.334   c-16.988,0-30.833-13.844-30.833-30.833V61.031z M106.917,30.959c7.863-2.557,16.311,1.746,18.867,9.609l12.267,37.79l12.629-37.78   c2.621-7.831,11.095-12.055,18.926-9.434s12.055,11.095,9.434,18.926l-26.785,80.126c-4.526,14.751-24.252,14.177-28.66,0.607   L97.308,49.827C94.752,41.963,99.054,33.516,106.917,30.959z"/>
</g>















</svg>
