<svg xmlns="http://www.w3.org/2000/svg" viewBox="0 0 687.5 687.5"><defs><style>.cls-1{fill:#fff;stroke:#fff;stroke-miterlimit:10;}.cls-2{fill:#e37332;}.cls-2,.cls-3,.cls-4{fill-rule:evenodd;}.cls-3{fill:#146347;}.cls-4{fill:#142742;}</style></defs><g id="Layer_2" data-name="Layer 2"><g id="Capa_1" data-name="Capa 1"><circle class="cls-1" cx="343.75" cy="343.75" r="343.25"/><path class="cls-2" d="M313.52,192.9h11.33a.87.87,0,0,0,.83-.83V142.79a.88.88,0,0,0-.83-.84H313.52a.89.89,0,0,0-.84.84v49.28A.88.88,0,0,0,313.52,192.9Z"/><path class="cls-3" d="M467.76,303.76H407.24v44.1h60.52c61,0,110.81-49.72,111-110.66A126.26,126.26,0,0,1,467.76,303.76Z"/><path class="cls-3" d="M272.31,303.76H219.74a126.29,126.29,0,0,1-111-66.55c.19,60.92,50,110.65,111,110.65h52.6Z"/><path class="cls-4" d="M546.12,397.46a38.77,38.77,0,0,0-4.46-3.81,29.77,29.77,0,0,0-43.91.07,37.77,37.77,0,0,0-8,7.86,38.14,38.14,0,0,0-8.06-7.95,29.87,29.87,0,0,0-43.92,0,37.91,37.91,0,0,0-8.06,7.95,37.68,37.68,0,0,0-8-7.9,29.88,29.88,0,0,0-44.12.11l-.37.27V300.28a37.52,37.52,0,1,0-75,0l.09,144.05L286,428a37.59,37.59,0,0,0-53,0c-14.69,14.69-11.84,35.78-.88,51.92,26.32,38.74,49.7,73.22,73.27,110.21a7.47,7.47,0,0,0,6.4,3.62l239.06-.34a7.46,7.46,0,0,0,7.47-7.41c.47-54.7,0-107.57-.94-162.08A38.31,38.31,0,0,0,546.12,397.46Z"/><path class="cls-2" d="M219.74,273.76h57.89c18.71-43.61,75.78-55.21,109.8-21.19a67.92,67.92,0,0,1,14.37,21.19h66a96,96,0,0,0,0-192h-248a96,96,0,0,0,0,192ZM457.69,127a15,15,0,0,1,15-15H488a15,15,0,1,1-.29,30v10.5a15,15,0,1,1,0,30V193c8.9,0,15.51,6.61,15.51,15a15,15,0,0,1-15,15H472.69a15,15,0,0,1-15-15V127Zm-72-15h40a15,15,0,1,1,0,30h-5v66a15,15,0,0,1-30,0V142h-5a15,15,0,0,1,0-30Zm-103,30.81A30.89,30.89,0,0,1,313.52,112h11.33a30.89,30.89,0,0,1,30.84,30.84v49.28a30.89,30.89,0,0,1-30.84,30.83H313.52a30.89,30.89,0,0,1-30.84-30.83V142.79Zm-88-30.08a15,15,0,0,1,18.87,9.61l12.27,37.79,12.63-37.78a15,15,0,0,1,28.36,9.49L240,212c-4.52,14.76-24.25,14.18-28.66.61l-26.29-81A15,15,0,0,1,194.67,112.71Z"/></g></g></svg>