<svg id="_x31_" enable-background="new 0 0 24 24" height="512" viewBox="0 0 24 24" width="512" xmlns="http://www.w3.org/2000/svg"><g><g><path d="m7.569 24c-.276 0-.5-.224-.5-.5v-.869c0-.31-.094-.607-.271-.86l-1.984-2.834c-.814-1.164-1.031-2.66-.584-4.005l.997-2.987c.288-.865 1.094-1.445 2.004-1.445h4.76c.561 0 1.042.322 1.257.84s.102 1.086-.295 1.482c-.925.926-2.112 1.495-3.394 1.641 1.372 1.15 2.415 2.674 2.983 4.379.087.262-.054.545-.316.633-.265.089-.545-.056-.632-.316-.61-1.83-1.83-3.427-3.435-4.496l-.369-.246c-.183-.122-.265-.351-.201-.562.064-.21.258-.354.479-.354h.835c1.263 0 2.45-.492 3.342-1.385.154-.153.106-.326.078-.393s-.116-.223-.333-.223h-4.76c-.479 0-.904.306-1.056.761l-.996 2.987c-.347 1.046-.178 2.211.455 3.115l1.984 2.833c.296.423.452.919.452 1.435v.869c0 .276-.224.5-.5.5z"/></g></g><g><g><path d="m13.565 16.964c-.339 0-.682-.086-.996-.268-.955-.551-1.283-1.776-.732-2.732l2-3.464c.552-.955 1.778-1.283 2.732-.731.463.267.794.698.932 1.214.138.517.067 1.056-.2 1.518l-2 3.464c-.37.639-1.044.999-1.736.999zm-.496-1.133c.477.272 1.091.11 1.366-.367l2-3.464c.134-.231.169-.501.1-.759s-.235-.474-.466-.607c-.477-.273-1.09-.11-1.366.366l-2 3.464c-.276.477-.112 1.091.366 1.367z"/></g></g><g><g><path d="m10.674 15.961c-.339 0-.683-.087-.996-.27-.601-.344-.984-.997-.998-1.701-.005-.276.214-.504.49-.51h.01c.272 0 .495.218.5.49.007.355.198.683.499.855.485.282 1.085.12 1.37-.368l1.998-3.457c.089-.152.133-.319.133-.5 0-.36-.188-.685-.502-.868-.479-.274-1.093-.111-1.364.366l-.721 1.251c-.138.24-.443.321-.683.185-.239-.138-.322-.443-.184-.683l.72-1.25c.543-.952 1.768-1.283 2.731-.735.62.362 1.002 1.025 1.002 1.734 0 .354-.093.701-.268 1.002l-1.999 3.458c-.374.643-1.048 1.001-1.738 1.001z"/></g></g><g><g><path d="m16.154 18.499c-.339 0-.682-.086-.997-.268v.001c-.463-.268-.794-.699-.932-1.215-.138-.517-.067-1.056.2-1.518l1.412-2.445c.552-.955 1.778-1.283 2.732-.731.463.267.794.698.932 1.214.138.517.067 1.056-.2 1.518l-1.412 2.445c-.37.641-1.044.999-1.735.999zm1.416-5.443c-.346 0-.683.179-.868.499l-1.411 2.445c-.134.231-.169.501-.1.759s.235.474.466.607c.479.274 1.09.111 1.366-.366l1.412-2.445c.134-.231.169-.501.1-.759s-.235-.474-.466-.607c-.157-.09-.329-.133-.499-.133z"/></g></g><g><g><path d="m10.51 11.5c-.276 0-.5-.224-.5-.499l-.009-9c0-.552-.449-1.001-1.001-1.001s-1.001.449-1.001 1.001l-.009 8.978c0 .276-.224.5-.5.5-.276 0-.5-.225-.5-.501l.009-8.979c.001-1.103.898-1.999 2.001-1.999s2 .896 2.001 1.999l.009 9c.001.276-.223.501-.5.501z"/></g></g><g><g><path d="m16.32 23.999c-.276 0-.5-.224-.5-.5v-.78c0-.586.205-1.154.576-1.6l.332-.393c.994-1.186 1.438-2.752 1.217-4.297l-.09-.652c-.038-.273.153-.525.427-.563.272-.039.526.153.563.427l.09.65c.261 1.823-.265 3.676-1.442 5.079l-.332.392c-.22.264-.342.604-.342.957v.78c.001.276-.223.5-.499.5z"/></g></g></svg>