<?xml version="1.0" encoding="iso-8859-1"?>
<!-- Generator: Adobe Illustrator 19.0.0, SVG Export Plug-In . SVG Version: 6.00 Build 0)  -->
<svg version="1.1" id="Capa_1" xmlns="http://www.w3.org/2000/svg" xmlns:xlink="http://www.w3.org/1999/xlink" x="0px" y="0px"
	 viewBox="0 0 512 512" style="enable-background:new 0 0 512 512;" xml:space="preserve">
<path style="fill:#0D70B2;" d="M391,135v102h-60V135c0-41.4-33.6-75-75-75s-75,33.6-75,75v102h-60V135C121,60.3,181.3,0,256,0
	S391,60.3,391,135z"/>
<path style="fill:#095C92;" d="M391,135v102h-60V135c0-41.4-33.6-75-75-75V0C330.7,0,391,60.3,391,135z"/>
<path style="fill:#FEA832;" d="M406,207H106c-24.901,0-45,20.099-45,45v215c0,24.899,20.099,45,45,45h300c24.901,0,45-20.101,45-45
	V252C451,227.099,430.901,207,406,207z"/>
<path style="fill:#FE9923;" d="M451,252v215c0,24.899-20.099,45-45,45H256V207h150C430.901,207,451,227.099,451,252z"/>
<path style="fill:#0D70B2;" d="M298.9,368.999c10.8-11.1,17.1-26.1,17.1-41.999c0-33.001-27.001-60-60-60s-60,26.999-60,60
	c0,15.899,6.301,30.899,17.1,41.999L196.6,428.1c-1.201,4.499-0.3,9.3,2.399,12.9c3.001,3.9,7.202,6,12.001,6h90
	c4.799,0,9-2.1,12.001-6c2.699-3.6,3.6-8.401,2.399-12.9L298.9,368.999z"/>
<path style="fill:#095C92;" d="M315.399,428.1c1.201,4.499,0.3,9.3-2.399,12.9c-3.001,3.9-7.202,6-12.001,6h-45V267
	c32.999,0,60,26.999,60,60c0,15.899-6.301,30.899-17.1,41.999L315.399,428.1z"/>
<g>
</g>
<g>
</g>
<g>
</g>
<g>
</g>
<g>
</g>
<g>
</g>
<g>
</g>
<g>
</g>
<g>
</g>
<g>
</g>
<g>
</g>
<g>
</g>
<g>
</g>
<g>
</g>
<g>
</g>
</svg>
