<svg xmlns="http://www.w3.org/2000/svg" viewBox="0 0 333.12 513"><defs><style>.cls-1{fill:#fff;stroke:#fff;stroke-miterlimit:10;}</style></defs><g id="Layer_2" data-name="Layer 2"><g id="_1" data-name="1"><path class="cls-1" d="M76.6,512.5a10.67,10.67,0,0,1-10.66-10.67V483.29A31.81,31.81,0,0,0,60.15,465L17.83,404.49A96.51,96.51,0,0,1,5.37,319.05l21.27-63.72A45,45,0,0,1,69.39,224.5H170.94A29,29,0,0,1,191.46,274a121.24,121.24,0,0,1-72.4,35,208.24,208.24,0,0,1,63.63,93.42,10.66,10.66,0,1,1-20.22,6.77,186.76,186.76,0,0,0-73.28-95.92l-7.87-5.25a10.66,10.66,0,0,1,5.93-19.54h17.81A100.07,100.07,0,0,0,176.36,259a7.7,7.7,0,0,0-5.44-13.14H69.37a23.75,23.75,0,0,0-22.53,16.24L25.59,325.79a75.14,75.14,0,0,0,9.71,66.45l42.33,60.44a53.17,53.17,0,0,1,9.64,30.61v18.54A10.67,10.67,0,0,1,76.6,512.5Z"/><path class="cls-1" d="M204.52,362.4a42.27,42.27,0,0,1-21.25-5.72,42.72,42.72,0,0,1-15.62-58.28l42.67-73.9a42.67,42.67,0,1,1,73.9,42.69l-42.67,73.9a42.77,42.77,0,0,1-37,21.31Zm-10.58-24.17a21.45,21.45,0,0,0,29.14-7.83l42.66-73.9a21.32,21.32,0,0,0-7.8-29.14,21.44,21.44,0,0,0-29.15,7.81l-42.66,73.9a21.37,21.37,0,0,0,7.81,29.16Z"/><path class="cls-1" d="M142.84,341a42,42,0,0,1-21.25-5.76A42.93,42.93,0,0,1,100.3,299a10.7,10.7,0,0,1,10.46-10.88H111a10.68,10.68,0,0,1,10.67,10.46,21.52,21.52,0,0,0,10.64,18.24,21.18,21.18,0,0,0,29.23-7.85l42.62-73.75A20.76,20.76,0,0,0,207,224.5a21.34,21.34,0,0,0-39.81-10.71l-15.38,26.69a10.66,10.66,0,1,1-18.49-10.63l15.36-26.66c11.58-20.31,37.71-27.37,58.26-15.68a42.76,42.76,0,0,1,15.66,58.37l-42.65,73.77A42.88,42.88,0,0,1,142.84,341Z"/><path class="cls-1" d="M259.75,395.15a42.4,42.4,0,0,1-21.27-5.72v0a42.69,42.69,0,0,1-15.62-58.3L253,279a42.67,42.67,0,0,1,73.9,42.68l-30.13,52.16a42.67,42.67,0,0,1-37,21.32ZM290,279a21.38,21.38,0,0,0-18.52,10.64l-30.1,52.16A21.32,21.32,0,0,0,249.15,371a21.39,21.39,0,0,0,29.14-7.8L308.41,311a21.32,21.32,0,0,0-7.81-29.14A21.36,21.36,0,0,0,290,279Z"/><path class="cls-1" d="M139.34,245.83a10.67,10.67,0,0,1-10.66-10.64l-.19-192a21.36,21.36,0,1,0-42.71,0l-.2,191.53a10.67,10.67,0,1,1-21.33,0l.19-191.55a42.69,42.69,0,0,1,85.38,0l.19,192a10.66,10.66,0,0,1-10.67,10.68Z"/><path class="cls-1" d="M263.29,512.48a10.67,10.67,0,0,1-10.67-10.67V485.17A53.46,53.46,0,0,1,264.91,451l7.08-8.39A117,117,0,0,0,298,351L296,337.08a10.66,10.66,0,0,1,21.12-2.91L319.08,348a138.31,138.31,0,0,1-30.77,108.35l-7.08,8.37a31.91,31.91,0,0,0-7.29,20.41v16.64a10.64,10.64,0,0,1-10.65,10.67Z"/></g></g></svg>